# xmcd
#
# Track frame offsets:
#	150
#	14065
#	32302
#	49431
#	59426
#	72846
#	85294
#	103302
#	118483
#	134311
#	150267
#	166167
#	181626
#
# Disc length: 2647 seconds
#
# Revision: 1
# Processed by: cddbd v1.5.2PL0 Copyright (c) Steve Scherf et al.
# Submitted via: audiograbber 1.83.01
#
DISCID=ad0a550d
DTITLE=Various Artist - Christmas At 201 Hope Stree 
DYEAR=1900
DGENRE=
TTITLE0=Judy Deramus - Even Santa Ought To Know
TTITLE1=Pat and Brooks Ann Cole - Blessed Sacred Night
TTITLE2=Eddie Thornhill - If The Innkeeper Had Known
TTITLE3=Glorya Wilson - Rocking Around The Christmas Tree
TTITLE4=Gladys Jones - All This Fuss About Jesus
TTITLE5=Gene Farington - Have A Country Christmas
TTITLE6=Benny Greenlee - Christmas Love
TTITLE7=Bill Townsend - Jesus Is The Reason
TTITLE8=Miki Farington - I'll Be Home For Christmas
TTITLE9=Roy And Terri Lynn Poole - Christmas In The Country
TTITLE10=Jim Krueger - The Cradle And The Cross
TTITLE11=Gladys Jones - Silent Night
TTITLE12=Gladys Jones - Silent Night
EXTD=
EXTT0=
EXTT1=
EXTT2=
EXTT3=
EXTT4=
EXTT5=
EXTT6=
EXTT7=
EXTT8=
EXTT9=
EXTT10=
EXTT11=
EXTT12=
PLAYORDER=
